<svg aria-hidden="true" style="position: absolute; width: 0; height: 0; overflow: hidden;" version="1.1" xmlns="http://www.w3.org/2000/svg" xmlns:xlink="http://www.w3.org/1999/xlink">
<defs>
<symbol id="icon-exclamation-octagon" viewBox="0 0 32 32">
<path d="M9.080 0.292c0.181-0.18 0.43-0.292 0.706-0.292h12.428c0.276 0 0.525 0.112 0.706 0.292l8.788 8.788c0.18 0.181 0.292 0.43 0.292 0.706v0 12.428c-0 0.276-0.112 0.525-0.292 0.706l-8.788 8.788c-0.181 0.18-0.43 0.292-0.706 0.292h-12.428c-0.276-0-0.525-0.112-0.706-0.292l-8.788-8.788c-0.18-0.181-0.292-0.43-0.292-0.706v0-12.428c0-0.276 0.112-0.525 0.292-0.706l8.788-8.788zM10.2 2l-8.2 8.2v11.6l8.2 8.2h11.6l8.2-8.2v-11.6l-8.2-8.2h-11.6z"></path>
<path d="M14.004 22c0-1.105 0.895-2 2-2s2 0.895 2 2v0c0 1.105-0.895 2-2 2s-2-0.895-2-2v0zM14.2 9.99c-0.006-0.057-0.010-0.123-0.010-0.19 0-1 0.81-1.81 1.81-1.81s1.81 0.81 1.81 1.81c0 0.067-0.004 0.133-0.011 0.198l0.001-0.008-0.7 7.014c-0.050 0.568-0.523 1.010-1.1 1.010s-1.050-0.442-1.1-1.006l-0-0.004-0.7-7.014z"></path>
</symbol>
<symbol id="icon-warning" viewBox="0 0 32 32">
<path d="M16 2.899l13.409 26.726h-26.819l13.409-26.726zM16 0c-0.69 0-1.379 0.465-1.903 1.395l-13.659 27.222c-1.046 1.86-0.156 3.383 1.978 3.383h27.166c2.134 0 3.025-1.522 1.978-3.383h0l-13.659-27.222c-0.523-0.93-1.213-1.395-1.903-1.395v0z"></path>
<path d="M18 26c0 1.105-0.895 2-2 2s-2-0.895-2-2c0-1.105 0.895-2 2-2s2 0.895 2 2z"></path>
<path d="M16 22c-1.105 0-2-0.895-2-2v-6c0-1.105 0.895-2 2-2s2 0.895 2 2v6c0 1.105-0.895 2-2 2z"></path>
</symbol>
<symbol id="icon-notification" viewBox="0 0 32 32">
<path d="M16 3c-3.472 0-6.737 1.352-9.192 3.808s-3.808 5.72-3.808 9.192c0 3.472 1.352 6.737 3.808 9.192s5.72 3.808 9.192 3.808c3.472 0 6.737-1.352 9.192-3.808s3.808-5.72 3.808-9.192c0-3.472-1.352-6.737-3.808-9.192s-5.72-3.808-9.192-3.808zM16 0v0c8.837 0 16 7.163 16 16s-7.163 16-16 16c-8.837 0-16-7.163-16-16s7.163-16 16-16zM14 22h4v4h-4zM14 6h4v12h-4z"></path>
</symbol>
<symbol id="group-2" viewBox="0 0 32 32">
<path d="M21.333 14.667c2.213 0 3.987-1.787 3.987-4s-1.773-4-3.987-4c-2.213 0-4 1.787-4 4s1.787 4 4 4zM10.667 14.667c2.213 0 3.987-1.787 3.987-4s-1.773-4-3.987-4c-2.213 0-4 1.787-4 4s1.787 4 4 4zM10.667 17.333c-3.107 0-9.333 1.56-9.333 4.667v3.333h18.667v-3.333c0-3.107-6.227-4.667-9.333-4.667zM21.333 17.333c-0.387 0-0.827 0.027-1.293 0.067 1.547 1.12 2.627 2.627 2.627 4.6v3.333h8v-3.333c0-3.107-6.227-4.667-9.333-4.667z"></path>
</symbol>
<symbol id="groups-3" viewBox="0 0 32 32">
<path d="M16 17c2.173 0 4.093 0.52 5.653 1.2 1.44 0.64 2.347 2.080 2.347 3.64v2.16h-16v-2.147c0-1.573 0.907-3.013 2.347-3.64 1.56-0.693 3.48-1.213 5.653-1.213zM5.333 17.333c1.467 0 2.667-1.2 2.667-2.667s-1.2-2.667-2.667-2.667-2.667 1.2-2.667 2.667c0 1.467 1.2 2.667 2.667 2.667zM6.84 18.8c-0.493-0.080-0.987-0.133-1.507-0.133-1.32 0-2.573 0.28-3.707 0.773-0.987 0.427-1.627 1.387-1.627 2.467v2.093h6v-2.147c0-1.107 0.307-2.147 0.84-3.053zM26.667 17.333c1.467 0 2.667-1.2 2.667-2.667s-1.2-2.667-2.667-2.667-2.667 1.2-2.667 2.667c0 1.467 1.2 2.667 2.667 2.667zM32 21.907c0-1.080-0.64-2.040-1.627-2.467-1.133-0.493-2.387-0.773-3.707-0.773-0.52 0-1.013 0.053-1.507 0.133 0.533 0.907 0.84 1.947 0.84 3.053v2.147h6v-2.093zM16 8c2.213 0 4 1.787 4 4s-1.787 4-4 4-4-1.787-4-4c0-2.213 1.787-4 4-4z"></path>
</symbol>
<symbol id="people_outline" viewBox="0 0 32 32">
<path d="M22 17.333c-1.6 0-4.093 0.453-6 1.333-1.907-0.893-4.4-1.333-6-1.333-2.893 0-8.667 1.44-8.667 4.333v3.667h29.333v-3.667c0-2.893-5.773-4.333-8.667-4.333zM16.667 23.333h-13.333v-1.667c0-0.72 3.413-2.333 6.667-2.333s6.667 1.613 6.667 2.333v1.667zM28.667 23.333h-10v-1.667c0-0.613-0.267-1.147-0.693-1.627 1.173-0.4 2.613-0.707 4.027-0.707 3.253 0 6.667 1.613 6.667 2.333v1.667zM10 16c2.573 0 4.667-2.093 4.667-4.667s-2.093-4.667-4.667-4.667-4.667 2.093-4.667 4.667 2.093 4.667 4.667 4.667zM10 8.667c1.467 0 2.667 1.2 2.667 2.667s-1.2 2.667-2.667 2.667-2.667-1.2-2.667-2.667 1.2-2.667 2.667-2.667zM22 16c2.573 0 4.667-2.093 4.667-4.667s-2.093-4.667-4.667-4.667-4.667 2.093-4.667 4.667 2.093 4.667 4.667 4.667zM22 8.667c1.467 0 2.667 1.2 2.667 2.667s-1.2 2.667-2.667 2.667-2.667-1.2-2.667-2.667 1.2-2.667 2.667-2.667z"></path>
</symbol>
<symbol id="person_add" viewBox="0 0 32 32">
<path d="M20 16c2.947 0 5.333-2.387 5.333-5.333s-2.387-5.333-5.333-5.333-5.333 2.387-5.333 5.333 2.387 5.333 5.333 5.333zM8 13.333v-4h-2.667v4h-4v2.667h4v4h2.667v-4h4v-2.667h-4zM20 18.667c-3.56 0-10.667 1.787-10.667 5.333v2.667h21.333v-2.667c0-3.547-7.107-5.333-10.667-5.333z"></path>
</symbol>
<symbol id="account_circle" viewBox="0 0 32 32">
<path  style="fill: var(--color1)" d="M16 2.667c-7.36 0-13.333 5.973-13.333 13.333s5.973 13.333 13.333 13.333 13.333-5.973 13.333-13.333-5.973-13.333-13.333-13.333zM16 6.667c2.213 0 4 1.787 4 4s-1.787 4-4 4-4-1.787-4-4 1.787-4 4-4zM16 25.6c-3.333 0-6.28-1.707-8-4.293 0.040-2.653 5.333-4.107 8-4.107 2.653 0 7.96 1.453 8 4.107-1.72 2.587-4.667 4.293-8 4.293z"></path>
</symbol>
<symbol id="add_circle" viewBox="0 0 32 32">
<path fill="#fff" style="fill: var(--color1, #fff)" d="M16 2.667c-7.36 0-13.333 5.973-13.333 13.333s5.973 13.333 13.333 13.333 13.333-5.973 13.333-13.333-5.973-13.333-13.333-13.333zM22.667 17.333h-5.333v5.333h-2.667v-5.333h-5.333v-2.667h5.333v-5.333h2.667v5.333h5.333v2.667z"></path>
</symbol>
<symbol id="add_ic_call" viewBox="0 0 32 32">
<path fill="#fff" style="fill: var(--color1, #fff)" d="M26.667 20.667c-1.667 0-3.267-0.267-4.76-0.76-0.467-0.147-0.987-0.040-1.36 0.32l-2.933 2.933c-3.773-1.92-6.867-5-8.787-8.787l2.933-2.947c0.373-0.347 0.48-0.867 0.333-1.333-0.493-1.493-0.76-3.093-0.76-4.76 0-0.733-0.6-1.333-1.333-1.333h-4.667c-0.733 0-1.333 0.6-1.333 1.333 0 12.52 10.147 22.667 22.667 22.667 0.733 0 1.333-0.6 1.333-1.333v-4.667c0-0.733-0.6-1.333-1.333-1.333zM28 8h-4v-4h-2.667v4h-4v2.667h4v4h2.667v-4h4z"></path>
</symbol>
<symbol id="call" viewBox="0 0 32 32">
<path d="M26.68 20.507c-1.64 0-3.227-0.267-4.707-0.747-0.467-0.16-0.987-0.040-1.347 0.32l-2.093 2.627c-3.773-1.8-7.307-5.2-9.187-9.107l2.6-2.213c0.36-0.373 0.467-0.893 0.32-1.36-0.493-1.48-0.747-3.067-0.747-4.707 0-0.72-0.6-1.32-1.32-1.32h-4.613c-0.72 0-1.587 0.32-1.587 1.32 0 12.387 10.307 22.68 22.68 22.68 0.947 0 1.32-0.84 1.32-1.573v-4.6c0-0.72-0.6-1.32-1.32-1.32z"></path>
</symbol>
<symbol id="clear" viewBox="0 0 32 32">
<path d="M25.333 8.547l-1.88-1.88-7.453 7.453-7.453-7.453-1.88 1.88 7.453 7.453-7.453 7.453 1.88 1.88 7.453-7.453 7.453 7.453 1.88-1.88-7.453-7.453z"></path>
</symbol>
<symbol id="contacts" viewBox="0 0 32 32">
<path fill="#fff" style="fill: var(--color1, #fff)" d="M26.667 0h-21.333v2.667h21.333v-2.667zM5.333 32h21.333v-2.667h-21.333v2.667zM26.667 5.333h-21.333c-1.467 0-2.667 1.2-2.667 2.667v16c0 1.467 1.2 2.667 2.667 2.667h21.333c1.467 0 2.667-1.2 2.667-2.667v-16c0-1.467-1.2-2.667-2.667-2.667zM16 9c1.653 0 3 1.347 3 3s-1.347 3-3 3-3-1.347-3-3 1.347-3 3-3zM22.667 22.667h-13.333v-2c0-2.227 4.44-3.333 6.667-3.333s6.667 1.107 6.667 3.333v2z"></path>
</symbol>
<symbol id="delete_outlin" viewBox="0 0 32 32">
<path d="M8 25.333c0 1.467 1.2 2.667 2.667 2.667h10.667c1.467 0 2.667-1.2 2.667-2.667v-16h-16v16zM10.667 12h10.667v13.333h-10.667v-13.333zM20.667 5.333l-1.333-1.333h-6.667l-1.333 1.333h-4.667v2.667h18.667v-2.667z"></path>
</symbol>
<symbol id="delete-black" viewBox="0 0 32 32">
<path d="M8 25.333c0 1.467 1.2 2.667 2.667 2.667h10.667c1.467 0 2.667-1.2 2.667-2.667v-16h-16v16zM25.333 5.333h-4.667l-1.333-1.333h-6.667l-1.333 1.333h-4.667v2.667h18.667v-2.667z"></path>
</symbol>
<symbol id="email-black" viewBox="0 0 32 32">
<path d="M26.667 5.333h-21.333c-1.467 0-2.653 1.2-2.653 2.667l-0.013 16c0 1.467 1.2 2.667 2.667 2.667h21.333c1.467 0 2.667-1.2 2.667-2.667v-16c0-1.467-1.2-2.667-2.667-2.667zM26.667 10.667l-10.667 6.667-10.667-6.667v-2.667l10.667 6.667 10.667-6.667v2.667z"></path>
</symbol>
<symbol id="home" viewBox="0 0 32 32">
<path  style="fill: var(--color1)" d="M13.333 26.667v-8h5.333v8h6.667v-10.667h4l-13.333-12-13.333 12h4v10.667z"></path>
</symbol>
<symbol id="login" viewBox="0 0 32 32">
<path  style="fill: var(--color1)" d="M14.667 9.333l-1.867 1.867 3.467 3.467h-13.6v2.667h13.6l-3.467 3.467 1.867 1.867 6.667-6.667-6.667-6.667zM26.667 25.333h-10.667v2.667h10.667c1.467 0 2.667-1.2 2.667-2.667v-18.667c0-1.467-1.2-2.667-2.667-2.667h-10.667v2.667h10.667v18.667z"></path>
</symbol>
<symbol id="logout" viewBox="0 0 32 32">
<path  style="fill: var(--color1)" d="M22.667 9.333l-1.88 1.88 3.44 3.453h-13.56v2.667h13.56l-3.44 3.44 1.88 1.893 6.667-6.667zM5.333 6.667h10.667v-2.667h-10.667c-1.467 0-2.667 1.2-2.667 2.667v18.667c0 1.467 1.2 2.667 2.667 2.667h10.667v-2.667h-10.667v-18.667z"></path>
</symbol>
<symbol id="mail_outline" viewBox="0 0 32 32">
<path d="M26.667 5.333h-21.333c-1.467 0-2.653 1.2-2.653 2.667l-0.013 16c0 1.467 1.2 2.667 2.667 2.667h21.333c1.467 0 2.667-1.2 2.667-2.667v-16c0-1.467-1.2-2.667-2.667-2.667zM26.667 24h-21.333v-13.333l10.667 6.667 10.667-6.667v13.333zM16 14.667l-10.667-6.667h21.333l-10.667 6.667z"></path>
</symbol>
<symbol id="manage_accounts" viewBox="0 0 32 32">
<path d="M18.667 10.667c0 2.946-2.388 5.333-5.333 5.333s-5.333-2.388-5.333-5.333c0-2.946 2.388-5.333 5.333-5.333s5.333 2.388 5.333 5.333z"></path>
<path d="M14.227 17.36c-0.293-0.013-0.587-0.027-0.893-0.027-3.227 0-6.24 0.893-8.813 2.427-1.173 0.693-1.853 2-1.853 3.373v3.533h12.347c-1.053-1.507-1.68-3.347-1.68-5.333 0-1.427 0.333-2.76 0.893-3.973z"></path>
<path d="M27.667 21.333c0-0.293-0.040-0.56-0.080-0.84l1.52-1.347-1.333-2.307-1.933 0.653c-0.427-0.36-0.907-0.64-1.44-0.84l-0.4-1.987h-2.667l-0.4 1.987c-0.533 0.2-1.013 0.48-1.44 0.84l-1.933-0.653-1.333 2.307 1.52 1.347c-0.040 0.28-0.080 0.547-0.080 0.84s0.040 0.56 0.080 0.84l-1.52 1.347 1.333 2.307 1.933-0.653c0.427 0.36 0.907 0.64 1.44 0.84l0.4 1.987h2.667l0.4-1.987c0.533-0.2 1.013-0.48 1.44-0.84l1.933 0.653 1.333-2.307-1.52-1.347c0.040-0.28 0.080-0.547 0.080-0.84zM22.667 24c-1.467 0-2.667-1.2-2.667-2.667s1.2-2.667 2.667-2.667 2.667 1.2 2.667 2.667-1.2 2.667-2.667 2.667z"></path>
</symbol>
<symbol id="delete-icon-old" viewBox="0 0 32 32">
<path d="M20 21.333h5.333v2.667h-5.333zM20 10.667h9.333v2.667h-9.333zM20 16h8v2.667h-8zM4 24c0 1.467 1.2 2.667 2.667 2.667h8c1.467 0 2.667-1.2 2.667-2.667v-13.333h-13.333v13.333zM18.667 6.667h-4l-1.333-1.333h-5.333l-1.333 1.333h-4v2.667h16z"></path>
</symbol>
<symbol id="edit" viewBox="0 0 32 32">
<path d="M4 23v5h5l14.747-14.747-5-5-14.747 14.747zM27.613 9.387c0.52-0.52 0.52-1.36 0-1.88l-3.12-3.12c-0.52-0.52-1.36-0.52-1.88 0l-2.44 2.44 5 5 2.44-2.44z"></path>
</symbol>
<symbol id="vpn_key" viewBox="0 0 32 32">
<path d="M16.867 13.333c-1.093-3.107-4.053-5.333-7.533-5.333-4.413 0-8 3.587-8 8s3.587 8 8 8c3.48 0 6.44-2.227 7.533-5.333h5.8v5.333h5.333v-5.333h2.667v-5.333h-13.8zM9.333 18.667c-1.467 0-2.667-1.2-2.667-2.667s1.2-2.667 2.667-2.667 2.667 1.2 2.667 2.667-1.2 2.667-2.667 2.667z"></path>
</symbol>
<symbol id="backspace" viewBox="0 0 32 32">
<path d="M29.333 4h-20c-0.92 0-1.64 0.467-2.12 1.173l-7.213 10.827 7.213 10.813c0.48 0.707 1.2 1.187 2.12 1.187h20c1.467 0 2.667-1.2 2.667-2.667v-18.667c0-1.467-1.2-2.667-2.667-2.667zM25.333 20.787l-1.88 1.88-4.787-4.787-4.787 4.787-1.88-1.88 4.787-4.787-4.787-4.787 1.88-1.88 4.787 4.787 4.787-4.787 1.88 1.88-4.787 4.787 4.787 4.787z"></path>
</symbol>
<symbol id="brightness" viewBox="0 0 32 32">
<path d="M13.333 2.667c-2.427 0-4.707 0.667-6.667 1.8 3.987 2.307 6.667 6.6 6.667 11.533s-2.68 9.227-6.667 11.533c1.96 1.133 4.24 1.8 6.667 1.8 7.36 0 13.333-5.973 13.333-13.333s-5.973-13.333-13.333-13.333z"></path>
</symbol>
</defs>
</svg>
