<svg aria-hidden="true" style="position: absolute; width: 0; height: 0; overflow: hidden;" version="1.1" xmlns="http://www.w3.org/2000/svg" xmlns:xlink="http://www.w3.org/1999/xlink">
<defs>
<symbol id="icon-exclamation-octagon" viewBox="0 0 32 32">
<path d="M9.080 0.292c0.181-0.18 0.43-0.292 0.706-0.292h12.428c0.276 0 0.525 0.112 0.706 0.292l8.788 8.788c0.18 0.181 0.292 0.43 0.292 0.706v0 12.428c-0 0.276-0.112 0.525-0.292 0.706l-8.788 8.788c-0.181 0.18-0.43 0.292-0.706 0.292h-12.428c-0.276-0-0.525-0.112-0.706-0.292l-8.788-8.788c-0.18-0.181-0.292-0.43-0.292-0.706v0-12.428c0-0.276 0.112-0.525 0.292-0.706l8.788-8.788zM10.2 2l-8.2 8.2v11.6l8.2 8.2h11.6l8.2-8.2v-11.6l-8.2-8.2h-11.6z"></path>
<path d="M14.004 22c0-1.105 0.895-2 2-2s2 0.895 2 2v0c0 1.105-0.895 2-2 2s-2-0.895-2-2v0zM14.2 9.99c-0.006-0.057-0.010-0.123-0.010-0.19 0-1 0.81-1.81 1.81-1.81s1.81 0.81 1.81 1.81c0 0.067-0.004 0.133-0.011 0.198l0.001-0.008-0.7 7.014c-0.050 0.568-0.523 1.010-1.1 1.010s-1.050-0.442-1.1-1.006l-0-0.004-0.7-7.014z"></path>
</symbol>
<symbol id="icon-warning" viewBox="0 0 32 32">
<path d="M16 2.899l13.409 26.726h-26.819l13.409-26.726zM16 0c-0.69 0-1.379 0.465-1.903 1.395l-13.659 27.222c-1.046 1.86-0.156 3.383 1.978 3.383h27.166c2.134 0 3.025-1.522 1.978-3.383h0l-13.659-27.222c-0.523-0.93-1.213-1.395-1.903-1.395v0z"></path>
<path d="M18 26c0 1.105-0.895 2-2 2s-2-0.895-2-2c0-1.105 0.895-2 2-2s2 0.895 2 2z"></path>
<path d="M16 22c-1.105 0-2-0.895-2-2v-6c0-1.105 0.895-2 2-2s2 0.895 2 2v6c0 1.105-0.895 2-2 2z"></path>
</symbol>
<symbol id="icon-notification" viewBox="0 0 32 32">
<path d="M16 3c-3.472 0-6.737 1.352-9.192 3.808s-3.808 5.72-3.808 9.192c0 3.472 1.352 6.737 3.808 9.192s5.72 3.808 9.192 3.808c3.472 0 6.737-1.352 9.192-3.808s3.808-5.72 3.808-9.192c0-3.472-1.352-6.737-3.808-9.192s-5.72-3.808-9.192-3.808zM16 0v0c8.837 0 16 7.163 16 16s-7.163 16-16 16c-8.837 0-16-7.163-16-16s7.163-16 16-16zM14 22h4v4h-4zM14 6h4v12h-4z"></path>
</symbol>
</defs>
</svg>
